<?xml version="1.0" standalone="no"?>
<!DOCTYPE svg PUBLIC "-//W3C//DTD SVG 20010904//EN"
 "http://www.w3.org/TR/2001/REC-SVG-20010904/DTD/svg10.dtd">
<svg version="1.0" xmlns="http://www.w3.org/2000/svg"
 width="400.000000pt" height="400.000000pt" viewBox="0 0 400.000000 400.000000"
 preserveAspectRatio="xMidYMid meet">

<g transform="translate(0.000000,400.000000) scale(0.100000,-0.100000)"
fill="#000000" stroke="none">
<path d="M0 2000 l0 -2000 2000 0 2000 0 0 2000 0 2000 -2000 0 -2000 0 0
-2000z m1604 1061 c75 -37 128 -91 165 -170 l26 -56 3 -377 3 -377 42 -13 c54
-16 260 -16 314 0 l42 13 3 377 3 377 26 56 c37 79 90 133 167 171 60 29 76
33 152 33 76 0 93 -4 152 -33 77 -38 130 -92 167 -171 24 -51 26 -66 25 -176
-1 -99 -6 -136 -28 -210 -92 -305 -314 -527 -623 -622 -79 -24 -103 -27 -243
-27 -140 0 -164 3 -243 27 -309 95 -531 317 -623 622 -22 74 -27 111 -28 210
-1 110 1 125 25 175 87 186 293 260 473 171z m-377 -1090 l73 -75 0 -339 c0
-333 0 -340 22 -379 25 -45 80 -78 128 -78 50 0 107 35 130 80 18 36 20 58 20
290 0 137 4 250 8 250 5 0 33 -8 63 -18 103 -36 189 -47 344 -46 149 2 186 8
363 60 l22 6 0 -251 c0 -233 2 -255 20 -291 23 -45 80 -80 130 -80 48 0 103
33 128 78 22 39 22 46 22 380 l0 341 73 73 c41 40 86 89 100 108 l27 35 -2
-475 -3 -475 -26 -56 c-37 -79 -90 -133 -167 -171 -59 -29 -76 -33 -152 -33
-71 0 -94 4 -141 26 -79 37 -133 90 -171 167 -32 64 -33 71 -36 212 l-4 145
-198 0 -198 0 -4 -145 c-3 -132 -5 -150 -29 -201 -37 -79 -90 -133 -167 -171
-59 -29 -76 -33 -152 -33 -71 0 -94 4 -141 26 -79 37 -133 90 -171 167 l-33
67 -3 475 -2 475 27 -35 c14 -19 60 -68 100 -109z"/>
<path d="M1381 2881 c-47 -25 -81 -85 -81 -143 0 -90 28 -200 76 -298 39 -79
62 -109 133 -180 l86 -85 3 300 c3 344 1 357 -73 401 -49 28 -97 30 -144 5z"/>
<path d="M2478 2879 c-23 -12 -46 -35 -58 -59 -19 -38 -20 -55 -18 -342 l3
-303 86 85 c71 71 94 101 133 180 48 97 76 208 76 296 0 124 -116 199 -222
143z"/>
</g>
</svg>
